<svg width="26" height="14" viewBox="0 0 26 14" fill="none" xmlns="http://www.w3.org/2000/svg">
    <path fill-rule="evenodd" clip-rule="evenodd" d="M12.3362 0.71146C12.4233 0.624154 12.5268 0.554886 12.6406 0.507624C12.7545 0.460362 12.8766 0.436035 13 0.436035C13.1233 0.436035 13.2454 0.460362 13.3593 0.507624C13.4732 0.554886 13.5766 0.624154 13.6637 0.71146L24.9137 11.9615C25.0897 12.1375 25.1886 12.3763 25.1886 12.6252C25.1886 12.8742 25.0897 13.1129 24.9137 13.289C24.7377 13.465 24.4989 13.5639 24.25 13.5639C24.001 13.5639 23.7622 13.465 23.5862 13.289L13 2.70084L2.41371 13.289C2.23768 13.465 1.99892 13.5639 1.74996 13.5639C1.50101 13.5639 1.26225 13.465 1.08621 13.289C0.910176 13.1129 0.811279 12.8742 0.811279 12.6252C0.811279 12.3763 0.910176 12.1375 1.08621 11.9615L12.3362 0.71146Z" fill="black"/>
</svg>
